<svg width="33" height="32" viewBox="0 0 33 32" fill="none" xmlns="http://www.w3.org/2000/svg">
<path d="M7.16683 1.33325H3.16683C2.81321 1.33325 2.47407 1.47373 2.22402 1.72378C1.97397 1.97382 1.8335 2.31296 1.8335 2.66659V29.3333C1.8335 29.6869 1.97397 30.026 2.22402 30.2761C2.47407 30.5261 2.81321 30.6666 3.16683 30.6666H7.16683V1.33325Z" fill="#C4B5FD"/>
<path d="M9.8335 30.6666H23.1668V1.33325H9.8335V30.6666ZM16.5002 25.3333C16.1465 25.3333 15.8074 25.1928 15.5574 24.9427C15.3073 24.6927 15.1668 24.3535 15.1668 23.9999C15.1668 23.6463 15.3073 23.3072 15.5574 23.0571C15.8074 22.8071 16.1465 22.6666 16.5002 22.6666C16.8538 22.6666 17.1929 22.8071 17.443 23.0571C17.693 23.3072 17.8335 23.6463 17.8335 23.9999C17.8335 24.3535 17.693 24.6927 17.443 24.9427C17.1929 25.1928 16.8538 25.3333 16.5002 25.3333ZM16.5002 6.66658C16.8538 6.66658 17.1929 6.80706 17.443 7.05711C17.693 7.30716 17.8335 7.6463 17.8335 7.99992C17.8335 8.35354 17.693 8.69268 17.443 8.94273C17.1929 9.19278 16.8538 9.33325 16.5002 9.33325C16.1465 9.33325 15.8074 9.19278 15.5574 8.94273C15.3073 8.69268 15.1668 8.35354 15.1668 7.99992C15.1668 7.6463 15.3073 7.30716 15.5574 7.05711C15.8074 6.80706 16.1465 6.66658 16.5002 6.66658ZM16.5002 14.6666C16.8538 14.6666 17.1929 14.8071 17.443 15.0571C17.693 15.3072 17.8335 15.6463 17.8335 15.9999C17.8335 16.3535 17.693 16.6927 17.443 16.9427C17.1929 17.1928 16.8538 17.3333 16.5002 17.3333C16.1465 17.3333 15.8074 17.1928 15.5574 16.9427C15.3073 16.6927 15.1668 16.3535 15.1668 15.9999C15.1668 15.6463 15.3073 15.3072 15.5574 15.0571C15.8074 14.8071 16.1465 14.6666 16.5002 14.6666Z" fill="#00D7FF"/>
<path d="M29.8335 1.33325H25.8335V30.6666H29.8335C30.1871 30.6666 30.5263 30.5261 30.7763 30.2761C31.0264 30.026 31.1668 29.6869 31.1668 29.3333V2.66659C31.1668 2.31296 31.0264 1.97382 30.7763 1.72378C30.5263 1.47373 30.1871 1.33325 29.8335 1.33325Z" fill="#7AE1F8"/>
</svg>