<svg width="33" height="32" viewBox="0 0 33 32" fill="none" xmlns="http://www.w3.org/2000/svg">
<path d="M28.4998 32.0001H16.4998C16.1462 32.0001 15.8071 31.8596 15.557 31.6096C15.307 31.3595 15.1665 31.0204 15.1665 30.6667V28.0001C15.1665 27.6465 15.307 27.3073 15.557 27.0573C15.8071 26.8072 16.1462 26.6667 16.4998 26.6667H28.4998C28.8535 26.6667 29.1926 26.8072 29.4426 27.0573C29.6927 27.3073 29.8332 27.6465 29.8332 28.0001V30.6667C29.8332 31.0204 29.6927 31.3595 29.4426 31.6096C29.1926 31.8596 28.8535 32.0001 28.4998 32.0001Z" fill="#C4B5FD"/>
<path d="M28.4998 0H4.49984C4.14622 0 3.80708 0.140475 3.55703 0.390523C3.30698 0.640572 3.1665 0.979711 3.1665 1.33333V4C3.1665 4.35362 3.30698 4.69276 3.55703 4.94281C3.80708 5.19286 4.14622 5.33333 4.49984 5.33333H28.4998C28.8535 5.33333 29.1926 5.19286 29.4426 4.94281C29.6927 4.69276 29.8332 4.35362 29.8332 4V1.33333C29.8332 0.979711 29.6927 0.640572 29.4426 0.390523C29.1926 0.140475 28.8535 0 28.4998 0Z" fill="#7AE1F8"/>
<path d="M28.4998 8H4.49984C4.14622 8 3.80708 8.14047 3.55703 8.39052C3.30698 8.64057 3.1665 8.97971 3.1665 9.33333V22.6667C3.1665 23.0203 3.30698 23.3594 3.55703 23.6095C3.80708 23.8595 4.14622 24 4.49984 24H28.4998C28.8535 24 29.1926 23.8595 29.4426 23.6095C29.6927 23.3594 29.8332 23.0203 29.8332 22.6667V9.33333C29.8332 8.97971 29.6927 8.64057 29.4426 8.39052C29.1926 8.14047 28.8535 8 28.4998 8Z" fill="#00D7FF"/>
</svg>