<svg width="33" height="32" viewBox="0 0 33 32" fill="none" xmlns="http://www.w3.org/2000/svg">
<path d="M31.1666 7.99992V2.66659C31.1666 2.31296 31.0261 1.97382 30.7761 1.72378C30.526 1.47373 30.1869 1.33325 29.8333 1.33325H3.16659C2.81296 1.33325 2.47382 1.47373 2.22378 1.72378C1.97373 1.97382 1.83325 2.31296 1.83325 2.66659V7.99992H31.1666Z" fill="#7AE1F8"/>
<path d="M1.83325 10.6665V29.3332C1.83325 29.6868 1.97373 30.0259 2.22378 30.276C2.47382 30.526 2.81296 30.6665 3.16659 30.6665H9.83325V10.6665H1.83325Z" fill="#C4B5FD"/>
<path d="M12.5 30.6665H29.8333C30.187 30.6665 30.5261 30.526 30.7761 30.276C31.0262 30.0259 31.1667 29.6868 31.1667 29.3332V10.6665H12.5V30.6665Z" fill="#00D7FF"/>
</svg>